<svg xmlns="http://www.w3.org/2000/svg" xmlns:xlink="http://www.w3.org/1999/xlink" width="500" zoomAndPan="magnify" viewBox="0 0 375 374.999991" height="500" preserveAspectRatio="xMidYMid meet" version="1.0"><defs><clipPath id="95ca850969"><path d="M 0 8 L 375 8 L 375 367.21875 L 0 367.21875 Z M 0 8 " clip-rule="nonzero"/></clipPath></defs><g clip-path="url(#95ca850969)"><path fill="#ffffff" d="M 179.351562 16.824219 C 218.910156 16.824219 257.464844 30.671875 287.921875 55.820312 C 288.699219 56.457031 289.675781 56.8125 290.683594 56.8125 L 329.804688 56.8125 C 331.382812 59.898438 334.59375 62.015625 338.300781 62.015625 C 343.570312 62.015625 347.84375 57.742188 347.84375 52.464844 C 347.84375 47.191406 343.570312 42.917969 338.300781 42.917969 C 334.59375 42.917969 331.382812 45.035156 329.804688 48.121094 L 292.230469 48.121094 C 276.816406 35.613281 259.59375 25.832031 241.023438 19.027344 C 221.296875 11.796875 200.550781 8.136719 179.351562 8.136719 C 155.140625 8.136719 131.648438 12.878906 109.535156 22.238281 C 88.175781 31.277344 68.992188 44.21875 52.523438 60.695312 C 36.050781 77.175781 23.117188 96.371094 14.085938 117.738281 C 4.730469 139.867188 -0.0117188 163.367188 -0.0117188 187.59375 C -0.0117188 211.820312 4.730469 235.320312 14.085938 257.449219 C 23.117188 278.816406 36.050781 298.011719 52.523438 314.492188 C 68.992188 330.96875 88.175781 343.910156 109.535156 352.949219 C 131.648438 362.308594 155.140625 367.050781 179.351562 367.050781 C 199.929688 367.050781 220.109375 363.59375 239.328125 356.777344 C 257.421875 350.351562 274.300781 341.089844 289.5 329.238281 L 321.992188 329.238281 C 323.503906 332.527344 326.816406 334.808594 330.667969 334.808594 C 335.9375 334.808594 340.210938 330.53125 340.210938 325.261719 C 340.210938 319.988281 335.9375 315.710938 330.667969 315.710938 C 327.105469 315.710938 324.003906 317.660156 322.363281 320.550781 L 287.996094 320.550781 C 287.019531 320.550781 286.066406 320.878906 285.296875 321.492188 C 254.886719 345.613281 218.253906 358.363281 179.351562 358.363281 C 85.238281 358.363281 8.671875 281.757812 8.671875 187.59375 C 8.671875 93.429688 85.238281 16.824219 179.351562 16.824219 Z M 365.242188 96.488281 C 370.617188 96.488281 374.972656 92.128906 374.972656 86.753906 C 374.972656 81.375 370.617188 77.015625 365.242188 77.015625 C 361.582031 77.015625 358.394531 79.042969 356.734375 82.035156 L 215.976562 82.035156 C 215.855469 81.90625 215.769531 81.75 215.726562 81.570312 L 211.449219 63.222656 C 210.316406 58.367188 207.542969 53.988281 203.640625 50.890625 C 199.738281 47.792969 194.847656 46.085938 189.863281 46.085938 L 168.425781 46.085938 C 163.445312 46.085938 158.550781 47.792969 154.648438 50.890625 C 150.746094 53.988281 147.972656 58.367188 146.839844 63.222656 L 142.5625 81.570312 C 142.480469 81.917969 142.234375 82.1875 141.882812 82.3125 C 138.394531 83.554688 134.9375 84.988281 131.597656 86.578125 C 131.261719 86.738281 130.890625 86.722656 130.589844 86.535156 L 114.59375 76.585938 C 110.363281 73.953125 105.304688 72.820312 100.355469 73.390625 C 95.40625 73.960938 90.738281 76.21875 87.21875 79.738281 L 72.058594 94.90625 C 68.539062 98.429688 66.28125 103.097656 65.714844 108.050781 C 65.144531 113.003906 66.277344 118.0625 68.90625 122.296875 L 78.851562 138.296875 C 79.039062 138.601562 79.054688 138.972656 78.894531 139.3125 C 77.308594 142.652344 75.875 146.113281 74.628906 149.605469 C 74.507812 149.953125 74.234375 150.199219 73.886719 150.277344 L 55.550781 154.558594 C 50.699219 155.691406 46.320312 158.464844 43.226562 162.371094 C 40.128906 166.273438 38.421875 171.171875 38.421875 176.15625 L 38.421875 199.511719 C 38.421875 203.300781 39.71875 207.019531 42.070312 209.980469 C 44.421875 212.949219 47.746094 215.058594 51.429688 215.917969 L 70.59375 220.386719 C 73.054688 220.964844 75.035156 222.734375 75.890625 225.132812 C 77.121094 228.578125 78.535156 232 80.101562 235.296875 C 81.195312 237.601562 81.050781 240.261719 79.714844 242.414062 L 69.324219 259.136719 C 67.328125 262.355469 66.464844 266.195312 66.898438 269.953125 C 67.332031 273.71875 69.042969 277.265625 71.71875 279.9375 L 87.558594 295.789062 C 90.234375 298.464844 93.777344 300.175781 97.535156 300.609375 C 101.296875 301.042969 105.136719 300.179688 108.347656 298.183594 L 125.0625 287.789062 C 127.210938 286.449219 129.875 286.304688 132.179688 287.402344 C 135.472656 288.964844 138.890625 290.386719 142.335938 291.617188 C 144.730469 292.46875 146.503906 294.449219 147.078125 296.914062 L 151.550781 316.085938 C 152.410156 319.773438 154.515625 323.101562 157.480469 325.453125 C 160.445312 327.804688 164.160156 329.101562 167.941406 329.101562 L 190.34375 329.101562 C 194.125 329.101562 197.84375 327.804688 200.8125 325.453125 C 203.773438 323.101562 205.878906 319.773438 206.738281 316.085938 L 211.210938 296.914062 C 211.785156 294.449219 213.558594 292.46875 215.953125 291.617188 C 219.398438 290.386719 222.816406 288.964844 226.109375 287.402344 C 228.414062 286.304688 231.078125 286.449219 233.226562 287.789062 L 249.941406 298.183594 C 253.152344 300.179688 256.992188 301.042969 260.75 300.609375 C 264.511719 300.175781 268.054688 298.464844 270.730469 295.789062 L 286.570312 279.9375 C 289.246094 277.265625 290.957031 273.71875 291.390625 269.953125 C 291.820312 266.195312 290.960938 262.355469 288.964844 259.136719 L 283.09375 249.6875 L 351.019531 249.6875 C 352.679688 252.679688 355.871094 254.707031 359.53125 254.707031 C 364.90625 254.707031 369.261719 250.347656 369.261719 244.972656 C 369.261719 239.597656 364.90625 235.238281 359.53125 235.238281 C 355.871094 235.238281 352.679688 237.265625 351.019531 240.253906 L 274.417969 240.253906 C 271.816406 240.253906 269.707031 242.367188 269.707031 244.972656 C 269.707031 246.332031 270.28125 247.554688 271.199219 248.414062 L 280.960938 264.117188 C 282.785156 267.058594 282.351562 270.824219 279.90625 273.269531 L 264.0625 289.117188 C 261.617188 291.566406 257.855469 292.003906 254.917969 290.171875 L 238.203125 279.777344 C 233.316406 276.738281 227.28125 276.40625 222.066406 278.882812 C 219.054688 280.3125 215.933594 281.605469 212.785156 282.730469 C 207.359375 284.667969 203.335938 289.167969 202.027344 294.773438 L 197.558594 313.945312 C 196.773438 317.3125 193.804688 319.667969 190.34375 319.667969 L 167.941406 319.667969 C 164.484375 319.667969 161.515625 317.3125 160.730469 313.945312 L 156.257812 294.773438 C 154.953125 289.167969 150.933594 284.667969 145.503906 282.730469 C 142.355469 281.605469 139.234375 280.3125 136.222656 278.882812 C 131.007812 276.40625 124.972656 276.738281 120.085938 279.777344 L 103.371094 290.171875 C 100.433594 292.003906 96.671875 291.566406 94.226562 289.117188 L 78.382812 273.269531 C 75.9375 270.824219 75.503906 267.058594 77.332031 264.117188 L 87.722656 247.398438 C 90.761719 242.503906 91.09375 236.46875 88.617188 231.25 C 87.1875 228.238281 85.890625 225.113281 84.769531 221.96875 C 82.835938 216.53125 78.335938 212.511719 72.734375 211.203125 L 53.574219 206.730469 C 50.203125 205.945312 47.847656 202.980469 47.847656 199.511719 L 47.847656 193.023438 L 47.882812 187.164062 C 47.859375 187.066406 47.847656 186.976562 47.847656 186.882812 L 47.847656 176.15625 C 47.847656 173.292969 48.828125 170.476562 50.609375 168.234375 C 52.390625 165.988281 54.90625 164.394531 57.691406 163.746094 L 76.027344 159.460938 C 79.507812 158.652344 82.304688 156.148438 83.507812 152.773438 C 84.644531 149.578125 85.957031 146.410156 87.40625 143.359375 C 88.949219 140.109375 88.746094 136.359375 86.855469 133.320312 L 76.914062 117.316406 C 75.402344 114.882812 74.75 111.976562 75.078125 109.128906 C 75.40625 106.285156 76.699219 103.601562 78.726562 101.574219 L 93.882812 86.410156 C 95.90625 84.382812 98.589844 83.089844 101.433594 82.761719 C 104.277344 82.429688 107.183594 83.085938 109.617188 84.597656 L 125.613281 94.542969 C 128.648438 96.433594 132.398438 96.640625 135.644531 95.097656 C 138.695312 93.648438 141.859375 92.332031 145.050781 91.195312 C 148.429688 89.992188 150.929688 87.195312 151.742188 83.710938 L 156.019531 65.363281 C 156.667969 62.578125 158.265625 60.058594 160.507812 58.277344 C 162.75 56.496094 165.5625 55.519531 168.425781 55.519531 L 189.863281 55.519531 C 192.726562 55.519531 195.539062 56.496094 197.78125 58.277344 C 200.023438 60.058594 201.617188 62.574219 202.269531 65.363281 L 206.546875 83.707031 C 207.351562 87.148438 209.796875 89.914062 213.105469 91.148438 C 213.632812 91.351562 214.214844 91.46875 214.816406 91.46875 L 356.734375 91.46875 C 358.394531 94.460938 361.582031 96.488281 365.242188 96.488281 Z M 111.40625 190.425781 C 111.40625 227.796875 141.792969 258.199219 179.144531 258.199219 C 216.496094 258.199219 246.878906 227.796875 246.878906 190.425781 C 246.878906 187.824219 248.992188 185.710938 251.59375 185.710938 L 336.136719 185.710938 C 337.796875 182.714844 340.984375 180.695312 344.644531 180.695312 C 350.019531 180.695312 354.375 185.050781 354.375 190.425781 C 354.375 195.800781 350.019531 200.160156 344.644531 200.160156 C 340.984375 200.160156 337.796875 198.132812 336.136719 195.140625 L 256.167969 195.140625 C 255.644531 203.898438 253.65625 212.398438 250.242188 220.476562 C 246.355469 229.671875 240.789062 237.929688 233.703125 245.015625 C 226.621094 252.105469 218.367188 257.671875 209.183594 261.558594 C 199.664062 265.585938 189.558594 267.632812 179.144531 267.632812 C 168.730469 267.632812 158.625 265.585938 149.109375 261.558594 C 139.917969 257.671875 131.667969 252.105469 124.582031 245.015625 C 117.496094 237.929688 111.933594 229.671875 108.046875 220.476562 C 104.023438 210.957031 101.980469 200.847656 101.980469 190.425781 C 101.980469 180.003906 104.023438 169.894531 108.046875 160.375 C 111.933594 151.179688 117.496094 142.925781 124.582031 135.835938 C 131.667969 128.746094 139.917969 123.179688 149.109375 119.289062 C 158.625 115.265625 168.730469 113.222656 179.144531 113.222656 C 189.722656 113.222656 199.96875 115.324219 209.613281 119.472656 C 218.164062 123.15625 225.882812 128.289062 232.597656 134.746094 L 307.183594 134.746094 C 308.84375 131.753906 312.035156 129.726562 315.699219 129.726562 C 321.070312 129.726562 325.425781 134.085938 325.425781 139.464844 C 325.425781 144.839844 321.070312 149.199219 315.699219 149.199219 C 312.035156 149.199219 308.84375 147.171875 307.183594 144.179688 L 230.582031 144.179688 C 229.019531 144.179688 227.632812 143.414062 226.777344 142.242188 C 214.011719 129.597656 197.144531 122.65625 179.144531 122.65625 C 141.792969 122.65625 111.40625 153.058594 111.40625 190.425781 " fill-opacity="1" fill-rule="nonzero"/></g></svg>