<svg xmlns="http://www.w3.org/2000/svg" xmlns:xlink="http://www.w3.org/1999/xlink" width="500" zoomAndPan="magnify" viewBox="0 0 375 374.999991" height="500" preserveAspectRatio="xMidYMid meet" version="1.0"><path fill="#ffffff" d="M 186.855469 164.265625 C 174.207031 164.265625 163.714844 174.445312 163.714844 187.09375 C 163.714844 199.746094 174.207031 209.925781 186.855469 209.925781 C 199.503906 209.925781 209.996094 199.746094 209.996094 187.09375 C 209.996094 174.445312 199.503906 164.265625 186.855469 164.265625 Z M 186.855469 197.585938 C 180.992188 197.585938 176.058594 192.957031 176.058594 187.09375 C 176.058594 181.234375 180.992188 176.605469 186.855469 176.605469 C 192.71875 176.605469 197.652344 181.234375 197.652344 187.09375 C 197.652344 192.957031 192.71875 197.585938 186.855469 197.585938 Z M 271.394531 139.582031 C 264.296875 127.242188 246.09375 123.539062 222.644531 127.859375 C 214.625 105.953125 202.28125 92.066406 187.78125 92.066406 C 173.28125 92.066406 160.9375 105.644531 152.917969 127.859375 C 129.777344 123.539062 111.574219 127.242188 104.167969 139.582031 C 100.777344 145.136719 100.160156 152.230469 102.320312 159.945312 C 104.476562 168.273438 110.339844 177.839844 118.363281 187.09375 C 110.339844 196.351562 104.476562 205.605469 102.320312 214.246094 C 100.160156 221.960938 100.777344 229.054688 104.167969 234.609375 C 109.414062 243.863281 120.832031 248.183594 135.640625 248.183594 C 140.886719 248.183594 146.746094 247.566406 152.917969 246.640625 C 160.9375 268.546875 173.28125 282.429688 187.78125 282.429688 C 202.28125 282.429688 214.625 268.855469 222.644531 246.640625 C 228.816406 247.875 234.371094 248.183594 239.921875 248.183594 C 254.730469 248.183594 266.148438 243.863281 271.394531 234.609375 C 274.785156 229.054688 275.402344 221.960938 273.242188 214.246094 C 271.085938 205.914062 265.222656 196.351562 257.199219 187.09375 C 265.222656 177.839844 271.085938 168.582031 273.242188 159.945312 C 275.402344 152.230469 274.785156 145.136719 271.394531 139.582031 Z M 188.089844 104.410156 C 196.113281 104.410156 204.441406 113.972656 210.613281 130.632812 C 203.515625 132.792969 195.804688 135.261719 188.089844 138.65625 C 180.375 135.261719 172.664062 132.484375 165.566406 130.632812 C 171.738281 113.972656 180.066406 104.410156 188.089844 104.410156 Z M 219.558594 187.09375 C 219.558594 193.265625 219.25 198.820312 218.941406 204.371094 C 214.316406 207.765625 209.070312 210.851562 203.824219 213.9375 C 198.578125 217.023438 193.027344 219.800781 188.089844 221.960938 C 182.84375 219.492188 177.601562 216.714844 172.355469 213.9375 C 167.109375 210.851562 162.171875 207.765625 157.238281 204.371094 C 156.621094 198.820312 156.621094 192.957031 156.621094 187.09375 C 156.621094 181.234375 156.929688 175.371094 157.238281 169.816406 C 161.863281 166.425781 167.109375 163.339844 172.355469 160.253906 C 177.601562 157.167969 182.84375 154.390625 188.089844 152.230469 C 193.335938 154.699219 198.578125 157.167969 203.824219 160.253906 C 209.070312 163.339844 214.007812 166.425781 218.941406 169.816406 C 219.25 175.371094 219.558594 180.925781 219.558594 187.09375 Z M 231.902344 179.382812 C 234.984375 181.851562 237.761719 184.320312 240.539062 187.09375 C 237.761719 189.5625 234.984375 192.339844 231.902344 194.808594 C 231.902344 192.339844 231.902344 189.871094 231.902344 187.09375 C 231.902344 184.320312 231.902344 181.851562 231.902344 179.382812 Z M 216.78125 220.726562 C 216.164062 224.734375 215.242188 228.4375 214.316406 231.832031 C 210.613281 230.90625 206.910156 229.671875 203.207031 228.4375 C 205.367188 227.203125 207.527344 225.96875 209.996094 224.734375 C 212.15625 223.191406 214.625 221.960938 216.78125 220.726562 Z M 172.972656 228.4375 C 169.269531 229.671875 165.566406 230.90625 161.863281 231.832031 C 160.9375 228.4375 160.011719 224.425781 159.398438 220.726562 C 161.554688 221.960938 164.023438 223.5 166.183594 224.734375 C 168.34375 225.96875 170.503906 227.203125 172.972656 228.4375 Z M 144.277344 194.808594 C 141.191406 192.339844 138.417969 189.871094 135.640625 187.09375 C 138.417969 184.628906 141.191406 181.851562 144.277344 179.382812 C 144.277344 181.851562 144.277344 184.320312 144.277344 187.09375 C 144.277344 189.871094 144.277344 192.339844 144.277344 194.808594 Z M 159.398438 153.464844 C 160.011719 149.453125 160.9375 145.753906 161.863281 142.359375 C 165.566406 143.285156 169.269531 144.519531 172.972656 145.753906 C 170.8125 146.988281 168.652344 148.21875 166.183594 149.453125 C 163.714844 150.996094 161.554688 152.230469 159.398438 153.464844 Z M 209.996094 149.453125 C 207.835938 148.21875 205.675781 146.988281 203.207031 145.753906 C 206.910156 144.519531 210.613281 143.285156 214.316406 142.359375 C 215.242188 145.753906 216.164062 149.761719 216.78125 153.464844 C 214.625 152.230469 212.15625 150.996094 209.996094 149.453125 Z M 115.277344 145.753906 C 118.054688 140.816406 125.457031 138.347656 135.640625 138.347656 C 139.960938 138.347656 144.585938 138.65625 149.523438 139.582031 C 147.671875 146.679688 146.128906 154.699219 145.203125 163.03125 C 138.417969 167.964844 132.246094 173.210938 127 178.148438 C 120.523438 170.742188 116.203125 163.339844 114.351562 156.859375 C 113.425781 152.230469 113.734375 148.527344 115.277344 145.753906 Z M 115.277344 228.4375 C 113.734375 225.660156 113.425781 221.960938 114.660156 217.332031 C 116.511719 210.851562 120.832031 203.449219 127.308594 196.042969 C 132.863281 201.289062 138.726562 206.222656 145.511719 211.160156 C 146.4375 219.492188 147.980469 227.203125 149.832031 234.609375 C 131.9375 237.695312 119.289062 235.226562 115.277344 228.4375 Z M 188.089844 269.78125 C 180.066406 269.78125 171.738281 260.21875 165.566406 243.554688 C 172.664062 241.398438 180.375 238.929688 188.089844 235.535156 C 195.804688 238.929688 203.515625 241.703125 210.613281 243.554688 C 204.441406 260.214844 196.113281 269.78125 188.089844 269.78125 Z M 260.902344 228.4375 C 256.890625 235.226562 244.242188 237.695312 226.347656 234.609375 C 228.199219 227.511719 229.742188 219.492188 230.667969 211.160156 C 237.453125 206.222656 243.625 200.980469 248.871094 196.042969 C 255.347656 203.449219 259.667969 210.851562 261.519531 217.332031 C 262.753906 221.960938 262.445312 225.660156 260.902344 228.4375 Z M 261.519531 156.859375 C 259.667969 163.339844 255.347656 170.742188 248.871094 178.148438 C 243.316406 172.902344 237.453125 167.964844 230.667969 163.03125 C 229.742188 154.699219 228.199219 146.988281 226.347656 139.582031 C 231.285156 138.65625 236.21875 138.347656 240.230469 138.347656 C 250.722656 138.347656 257.816406 140.816406 260.59375 145.753906 C 262.445312 148.527344 262.753906 152.230469 261.519531 156.859375 Z M 374.75 101.632812 L 374.75 89.292969 L 350.683594 89.292969 L 350.683594 76.949219 C 350.683594 73.554688 347.90625 70.78125 344.515625 70.78125 L 329.394531 70.78125 C 326.621094 57.820312 316.4375 47.640625 303.480469 44.863281 L 303.480469 29.746094 C 303.480469 26.351562 300.703125 23.574219 297.308594 23.574219 L 284.96875 23.574219 L 284.96875 -0.492188 L 272.625 -0.492188 L 272.625 23.574219 L 238.996094 23.574219 L 238.996094 -0.492188 L 226.65625 -0.492188 L 226.65625 23.574219 L 193.027344 23.574219 L 193.027344 -0.492188 L 180.683594 -0.492188 L 180.683594 23.574219 L 147.054688 23.574219 L 147.054688 -0.492188 L 134.714844 -0.492188 L 134.714844 23.574219 L 101.394531 23.574219 L 101.394531 -0.492188 L 89.050781 -0.492188 L 89.050781 23.574219 L 76.710938 23.574219 C 73.316406 23.574219 70.539062 26.351562 70.539062 29.746094 L 70.539062 44.863281 C 57.582031 47.640625 47.398438 57.820312 44.625 70.78125 L 29.503906 70.78125 C 26.113281 70.78125 23.335938 73.554688 23.335938 76.949219 L 23.335938 89.292969 L -0.730469 89.292969 L -0.730469 101.632812 L 23.335938 101.632812 L 23.335938 135.261719 L -0.730469 135.261719 L -0.730469 147.601562 L 23.335938 147.601562 L 23.335938 180.925781 L -0.730469 180.925781 L -0.730469 193.265625 L 23.335938 193.265625 L 23.335938 226.894531 L -0.730469 226.894531 L -0.730469 239.238281 L 23.335938 239.238281 L 23.335938 272.867188 L -0.730469 272.867188 L -0.730469 285.207031 L 23.335938 285.207031 L 23.335938 297.550781 C 23.335938 300.941406 26.113281 303.71875 29.503906 303.71875 L 44.625 303.71875 C 47.398438 316.675781 57.582031 326.859375 70.539062 329.636719 L 70.539062 344.753906 C 70.539062 348.148438 73.316406 350.925781 76.710938 350.925781 L 89.050781 350.925781 L 89.050781 374.988281 L 101.394531 374.988281 L 101.394531 350.925781 L 135.023438 350.925781 L 135.023438 374.988281 L 147.363281 374.988281 L 147.363281 350.925781 L 180.683594 350.925781 L 180.683594 374.988281 L 193.027344 374.988281 L 193.027344 350.925781 L 226.65625 350.925781 L 226.65625 374.988281 L 238.996094 374.988281 L 238.996094 350.925781 L 272.625 350.925781 L 272.625 374.988281 L 284.96875 374.988281 L 284.96875 350.925781 L 297.308594 350.925781 C 300.703125 350.925781 303.480469 348.148438 303.480469 344.753906 L 303.480469 329.636719 C 316.4375 326.859375 326.621094 316.675781 329.394531 303.71875 L 344.515625 303.71875 C 347.90625 303.71875 350.683594 300.941406 350.683594 297.550781 L 350.683594 285.207031 L 374.75 285.207031 L 374.75 272.867188 L 350.683594 272.867188 L 350.683594 239.238281 L 374.75 239.238281 L 374.75 226.894531 L 350.683594 226.894531 L 350.683594 193.265625 L 374.75 193.265625 L 374.75 180.925781 L 350.683594 180.925781 L 350.683594 147.296875 L 374.75 147.296875 L 374.75 134.953125 L 350.683594 134.953125 L 350.683594 101.632812 Z M 82.574219 35.605469 L 290.832031 35.605469 L 290.832031 43.628906 L 82.574219 43.628906 Z M 35.367188 82.8125 L 43.390625 82.8125 L 43.390625 291.070312 L 35.367188 291.070312 Z M 291.140625 338.582031 L 82.574219 338.582031 L 82.574219 330.5625 L 290.832031 330.5625 L 290.832031 338.582031 Z M 295.765625 318.21875 L 77.945312 318.21875 C 65.605469 318.21875 55.730469 308.347656 55.730469 296.007812 L 55.730469 78.183594 C 55.730469 65.84375 65.605469 55.96875 77.945312 55.96875 L 295.765625 55.96875 C 308.109375 55.96875 317.980469 65.84375 317.980469 78.183594 L 317.980469 296.007812 C 317.980469 308.039062 307.800781 318.21875 295.765625 318.21875 Z M 338.34375 291.378906 L 330.320312 291.378906 L 330.320312 82.8125 L 338.34375 82.8125 Z M 338.34375 291.378906 " fill-opacity="1" fill-rule="nonzero"/></svg>