<svg xmlns="http://www.w3.org/2000/svg" xmlns:xlink="http://www.w3.org/1999/xlink" width="500" zoomAndPan="magnify" viewBox="0 0 375 374.999991" height="500" preserveAspectRatio="xMidYMid meet" version="1.0"><defs><clipPath id="bedf8d6fd9"><path d="M 0 17.34375 L 375 17.34375 L 375 357.84375 L 0 357.84375 Z M 0 17.34375 " clip-rule="nonzero"/></clipPath></defs><g clip-path="url(#bedf8d6fd9)"><path fill="#ffffff" d="M 101.0625 142.84375 C 116.707031 142.84375 129.777344 131.601562 132.566406 116.6875 L 153.351562 116.6875 C 158.859375 133.21875 182.652344 133.21875 188.160156 116.6875 L 260.203125 116.6875 C 286.714844 117.496094 287.082031 156.511719 260.203125 157.246094 C 260.203125 157.246094 128.75 157.246094 128.75 157.246094 C 86.082031 158.714844 86.007812 220.4375 128.75 221.910156 C 128.75 221.910156 204.390625 221.910156 204.390625 221.910156 C 209.898438 238.441406 233.691406 238.367188 239.199219 221.910156 L 254.917969 221.910156 C 262.996094 259.675781 317.558594 254.828125 318.585938 215.882812 C 317.558594 176.867188 262.996094 172.089844 254.917969 209.859375 L 239.199219 209.859375 C 233.691406 193.398438 209.898438 193.398438 204.390625 209.859375 L 128.75 209.859375 C 123.386719 209.859375 118.246094 207.726562 114.429688 203.90625 C 101.722656 191.636719 110.976562 168.929688 128.75 169.296875 C 128.75 169.296875 260.203125 169.296875 260.203125 169.296875 C 268.796875 169.296875 276.949219 165.917969 283.042969 159.820312 C 303.3125 140.054688 288.550781 104.269531 260.203125 104.636719 C 260.203125 104.636719 188.160156 104.636719 188.160156 104.636719 C 182.652344 88.175781 158.859375 88.175781 153.351562 104.636719 L 132.566406 104.636719 C 124.488281 66.867188 69.925781 71.71875 68.898438 110.660156 C 68.972656 128.445312 83.363281 142.84375 101.0625 142.84375 Z M 286.566406 195.824219 C 313.152344 196.632812 313.152344 235.207031 286.566406 236.015625 C 259.984375 235.132812 259.984375 196.632812 286.566406 195.824219 Z M 221.867188 209.417969 C 230.386719 209.5625 230.386719 222.203125 221.867188 222.347656 C 213.351562 222.203125 213.351562 209.5625 221.867188 209.417969 Z M 170.828125 104.269531 C 179.347656 104.414062 179.347656 117.054688 170.828125 117.203125 C 162.3125 117.054688 162.3125 104.414062 170.828125 104.269531 Z M 101.0625 90.601562 C 127.648438 91.410156 127.574219 129.988281 101.0625 130.792969 C 74.480469 129.988281 74.550781 91.484375 101.0625 90.601562 Z M 286.566406 203.832031 C 302.429688 204.273438 302.503906 227.566406 286.566406 227.933594 C 270.632812 227.566406 270.632812 204.273438 286.566406 203.832031 Z M 101.503906 98.832031 C 101.503906 98.832031 110.902344 105.886719 110.902344 105.886719 C 114.0625 108.164062 114.0625 113.234375 110.902344 115.511719 L 101.503906 122.566406 C 98.859375 124.550781 95.113281 124.035156 93.058594 121.390625 C 91.074219 118.746094 91.589844 114.921875 94.234375 112.941406 L 97.246094 110.660156 C 97.246094 110.660156 94.234375 108.382812 94.234375 108.382812 C 87.992188 103.609375 95.113281 94.203125 101.503906 98.832031 Z M 364.046875 17.34375 L 10.953125 17.34375 C 5.078125 17.34375 0.234375 22.121094 0.234375 28.070312 L 0.234375 49.527344 C 0.234375 55.480469 5.078125 60.253906 10.953125 60.253906 L 30.488281 60.253906 L 30.488281 272.316406 C 30.488281 275.621094 33.207031 278.339844 36.511719 278.339844 L 120.449219 278.339844 L 79.765625 348.804688 C 78.664062 350.644531 78.664062 352.996094 79.765625 354.832031 C 80.867188 356.667969 82.851562 357.84375 84.980469 357.84375 L 116.777344 357.84375 C 118.910156 357.84375 120.890625 356.667969 121.992188 354.832031 L 166.203125 278.339844 L 215.625 278.339844 L 259.761719 354.832031 C 260.863281 356.667969 262.847656 357.84375 264.976562 357.84375 L 296.777344 357.84375 C 298.90625 357.84375 300.886719 356.667969 301.988281 354.832031 C 303.089844 352.996094 303.089844 350.644531 301.988281 348.804688 L 261.304688 278.339844 L 351.121094 278.339844 C 354.425781 278.339844 357.140625 275.621094 357.140625 272.316406 L 357.140625 60.328125 L 364.046875 60.328125 C 369.992188 60.328125 374.765625 55.480469 374.765625 49.601562 L 374.765625 28.070312 C 374.765625 22.121094 369.921875 17.34375 364.046875 17.34375 Z M 113.402344 345.792969 L 95.480469 345.792969 L 134.402344 278.339844 L 152.25 278.339844 Z M 286.347656 345.792969 L 268.503906 345.792969 L 229.582031 278.339844 L 247.5 278.339844 Z M 345.097656 266.289062 L 42.53125 266.289062 L 42.53125 60.328125 L 345.097656 60.328125 Z M 362.722656 48.277344 L 12.277344 48.277344 L 12.277344 29.394531 L 362.722656 29.394531 Z M 362.722656 48.277344 " fill-opacity="1" fill-rule="nonzero"/></g></svg>