<svg xmlns="http://www.w3.org/2000/svg" xmlns:xlink="http://www.w3.org/1999/xlink" width="500" zoomAndPan="magnify" viewBox="0 0 375 374.999991" height="500" preserveAspectRatio="xMidYMid meet" version="1.0"><path fill="#ffffff" d="M 289.414062 103.964844 C 308.832031 103.964844 324.628906 88.171875 324.628906 68.761719 C 324.628906 49.371094 308.832031 33.589844 289.414062 33.589844 C 271.164062 33.589844 256.105469 47.238281 254.390625 65.253906 C 254.25 66.40625 254.207031 67.5625 254.207031 68.761719 C 254.207031 88.171875 270.003906 103.964844 289.414062 103.964844 Z M 262.085938 66.070312 C 263.425781 51.964844 275.175781 41.328125 289.421875 41.328125 C 304.570312 41.328125 316.894531 53.632812 316.894531 68.761719 C 316.894531 83.910156 304.570312 96.226562 289.421875 96.226562 C 274.273438 96.226562 261.953125 83.902344 261.953125 68.761719 C 261.945312 67.863281 261.976562 67.003906 262.085938 66.070312 Z M 41.8125 122.277344 L 25.953125 135.511719 L 41.8125 148.75 C 43.453125 150.117188 43.671875 152.558594 42.304688 154.195312 C 41.539062 155.117188 40.445312 155.585938 39.328125 155.585938 C 38.453125 155.585938 37.570312 155.292969 36.851562 154.6875 L 17.433594 138.484375 C 16.550781 137.746094 16.042969 136.660156 16.042969 135.511719 C 16.042969 134.367188 16.550781 133.277344 17.433594 132.542969 L 36.851562 116.335938 C 38.492188 114.960938 40.9375 115.191406 42.296875 116.828125 C 43.671875 118.46875 43.453125 120.910156 41.8125 122.277344 Z M 70.484375 148.75 L 86.347656 135.511719 L 70.484375 122.277344 C 68.847656 120.910156 68.625 118.46875 69.992188 116.828125 C 71.351562 115.191406 73.800781 114.96875 75.4375 116.335938 L 94.859375 132.542969 C 95.738281 133.277344 96.246094 134.367188 96.246094 135.511719 C 96.246094 136.660156 95.738281 137.746094 94.859375 138.484375 L 75.4375 154.6875 C 74.71875 155.292969 73.835938 155.585938 72.960938 155.585938 C 71.851562 155.585938 70.75 155.117188 69.984375 154.195312 C 68.625 152.558594 68.847656 150.117188 70.484375 148.75 Z M 66.941406 120.886719 L 52.417969 153.300781 C 51.78125 154.742188 50.367188 155.59375 48.882812 155.59375 C 48.355469 155.59375 47.816406 155.484375 47.304688 155.253906 C 45.355469 154.378906 44.480469 152.09375 45.355469 150.140625 L 59.878906 117.726562 C 60.753906 115.769531 63.039062 114.894531 64.996094 115.777344 C 66.941406 116.644531 67.816406 118.9375 66.941406 120.886719 Z M 371.824219 295.40625 L 293.289062 295.40625 L 293.289062 137.511719 L 298.742188 137.511719 C 301.878906 137.511719 304.429688 134.960938 304.429688 131.824219 L 304.429688 122.394531 C 308.738281 121.195312 312.847656 119.484375 316.726562 117.285156 L 323.402344 123.957031 C 324.503906 125.0625 325.894531 125.648438 327.496094 125.648438 C 329.015625 125.628906 330.433594 125.011719 331.425781 123.964844 L 344.703125 110.730469 C 346.796875 108.515625 346.796875 105.039062 344.621094 102.738281 L 337.945312 96.09375 C 340.152344 92.191406 341.863281 88.070312 343.0625 83.777344 L 352.492188 83.777344 C 355.632812 83.777344 358.179688 81.226562 358.179688 78.085938 L 358.179688 59.46875 C 358.179688 56.316406 355.625 53.742188 352.492188 53.742188 L 343.054688 53.742188 C 341.855469 49.445312 340.152344 45.328125 337.945312 41.453125 L 344.621094 34.773438 C 346.832031 32.5625 346.832031 28.960938 344.621094 26.746094 L 331.417969 13.546875 C 329.230469 11.355469 325.738281 11.332031 323.402344 13.554688 L 316.726562 20.226562 C 312.847656 18.03125 308.730469 16.316406 304.429688 15.117188 L 304.429688 5.6875 C 304.429688 2.550781 301.878906 0 298.742188 0 L 280.09375 0 C 276.957031 0 274.40625 2.550781 274.40625 5.6875 L 274.40625 15.117188 C 270.105469 16.316406 265.988281 18.03125 262.109375 20.226562 L 255.363281 13.488281 C 253.097656 11.332031 249.605469 11.363281 247.410156 13.554688 L 234.222656 26.738281 C 233.148438 27.804688 232.554688 29.238281 232.554688 30.761719 C 232.554688 32.28125 233.148438 33.714844 234.214844 34.773438 L 240.890625 41.445312 C 238.683594 45.328125 236.980469 49.4375 235.78125 53.742188 L 226.351562 53.742188 C 223.210938 53.742188 220.660156 56.316406 220.660156 59.46875 L 220.660156 61.828125 L 66.875 61.828125 C 64.738281 61.828125 63.011719 63.5625 63.011719 65.695312 L 63.011719 99.101562 L 7.023438 99.101562 C 3.996094 99.101562 1.527344 101.5625 1.527344 104.597656 L 1.527344 166.421875 C 1.527344 169.457031 3.996094 171.917969 7.023438 171.917969 L 63.003906 171.917969 L 63.003906 245.910156 L 45.914062 211.902344 L 39.035156 198.210938 L 35.300781 190.769531 C 30.796875 181.8125 19.835938 178.171875 10.867188 182.6875 C 6.503906 184.875 3.277344 188.632812 1.792969 193.203125 C 0.234375 197.804688 0.585938 202.742188 2.785156 207.109375 L 6.523438 214.546875 L 13.40625 228.242188 L 75.085938 351.003906 C 75.117188 351.0625 75.167969 351.089844 75.195312 351.148438 C 75.386719 351.496094 75.628906 351.8125 75.925781 352.082031 C 75.96875 352.125 76.003906 352.179688 76.058594 352.222656 C 76.078125 352.238281 76.085938 352.257812 76.109375 352.273438 L 103.121094 374.125 C 103.824219 374.699219 104.683594 374.984375 105.550781 374.984375 C 106.148438 374.984375 106.734375 374.84375 107.289062 374.574219 C 108.648438 373.890625 109.476562 372.480469 109.410156 370.957031 L 108.816406 356.257812 C 112.910156 357.160156 117.105469 357.648438 121.382812 357.648438 L 317.300781 357.648438 C 332.875 357.648438 347.539062 351.566406 358.570312 340.535156 C 369.609375 329.503906 375.683594 314.839844 375.683594 299.265625 C 375.6875 297.132812 373.960938 295.40625 371.824219 295.40625 Z M 228.402344 61.484375 L 238.808594 61.484375 C 240.632812 61.484375 242.203125 60.21875 242.59375 58.441406 C 243.792969 52.914062 245.960938 47.710938 249.027344 42.960938 C 250.019531 41.433594 249.796875 39.417969 248.511719 38.125 L 241.152344 30.761719 L 251.429688 20.484375 L 258.785156 27.84375 C 260.082031 29.136719 262.085938 29.339844 263.621094 28.355469 C 268.363281 25.292969 273.574219 23.128906 279.101562 21.925781 C 280.878906 21.535156 282.144531 19.960938 282.144531 18.148438 L 282.144531 7.738281 L 296.691406 7.738281 L 296.691406 18.148438 C 296.691406 19.96875 297.960938 21.542969 299.734375 21.925781 C 305.261719 23.128906 310.464844 25.292969 315.214844 28.355469 C 316.75 29.339844 318.753906 29.136719 320.050781 27.84375 L 327.414062 20.476562 L 337.6875 30.753906 L 330.324219 38.117188 C 329.039062 39.402344 328.816406 41.425781 329.808594 42.953125 C 332.875 47.695312 335.035156 52.90625 336.242188 58.433594 C 336.632812 60.210938 338.203125 61.476562 340.027344 61.476562 L 350.433594 61.476562 L 350.433594 76.023438 L 340.027344 76.023438 C 338.203125 76.023438 336.632812 77.285156 336.242188 79.066406 C 335.042969 84.570312 332.875 89.796875 329.804688 94.59375 C 328.816406 96.125 329.039062 98.136719 330.332031 99.425781 L 337.703125 106.757812 L 327.414062 117.019531 L 320.050781 109.664062 C 318.753906 108.371094 316.75 108.164062 315.214844 109.148438 C 310.472656 112.214844 305.269531 114.375 299.734375 115.578125 C 297.953125 115.96875 296.691406 117.542969 296.691406 119.359375 L 296.691406 129.765625 L 289.4375 129.765625 C 289.429688 129.765625 289.421875 129.757812 289.414062 129.757812 L 282.136719 129.757812 L 282.136719 119.351562 C 282.136719 117.527344 280.875 115.953125 279.09375 115.574219 C 273.558594 114.367188 268.355469 112.199219 263.617188 109.140625 C 262.460938 108.398438 261.050781 108.332031 259.867188 108.890625 C 259.632812 109 259.425781 109.191406 259.210938 109.355469 C 259.074219 109.457031 258.910156 109.53125 258.777344 109.65625 L 251.414062 117.019531 L 241.125 106.765625 L 241.191406 106.699219 L 248.496094 99.425781 C 249.78125 98.136719 250.003906 96.125 249.019531 94.59375 C 245.945312 89.804688 243.777344 84.578125 242.578125 79.066406 C 242.191406 77.285156 240.617188 76.023438 238.792969 76.023438 L 228.386719 76.023438 L 228.386719 65.695312 C 228.386719 65.6875 228.378906 65.679688 228.378906 65.671875 L 228.378906 61.484375 Z M 9.265625 164.179688 L 9.265625 106.839844 L 103.03125 106.839844 L 103.03125 164.164062 L 66.875 164.164062 C 66.847656 164.164062 66.824219 164.179688 66.796875 164.179688 Z M 11.699219 207.625 L 9.699219 203.640625 C 8.445312 201.140625 8.238281 198.3125 9.140625 195.644531 C 10 193.003906 11.847656 190.859375 14.351562 189.601562 C 19.503906 187.015625 25.804688 189.101562 28.390625 194.253906 L 30.390625 198.238281 L 21.050781 202.933594 Z M 15.175781 214.535156 L 24.519531 209.835938 L 33.859375 205.140625 L 37.261719 211.925781 L 27.921875 216.621094 L 18.578125 221.316406 Z M 22.054688 228.234375 L 31.398438 223.539062 L 40.738281 218.839844 L 63.40625 263.960938 C 63.40625 263.96875 63.40625 263.976562 63.414062 263.984375 L 98.9375 334.699219 L 89.601562 339.390625 L 80.261719 344.085938 Z M 85.640625 350.039062 L 100.519531 342.5625 L 100.597656 344.554688 L 101.339844 362.738281 Z M 133.484375 348.945312 C 133.0625 349.023438 132.679688 349.195312 132.328125 349.390625 C 132.21875 349.457031 132.121094 349.539062 132.019531 349.613281 C 131.875 349.714844 131.71875 349.796875 131.585938 349.921875 L 121.390625 349.921875 C 116.988281 349.921875 112.667969 349.363281 108.507812 348.269531 L 108.390625 345.394531 L 108.023438 336.257812 C 108.023438 336.234375 108.015625 336.222656 108.015625 336.207031 C 108.015625 336.15625 107.992188 336.097656 107.984375 336.042969 C 107.941406 335.625 107.832031 335.222656 107.660156 334.847656 C 107.640625 334.796875 107.640625 334.738281 107.617188 334.683594 L 70.757812 261.332031 L 70.757812 171.917969 L 105.28125 171.917969 C 106.007812 171.917969 106.707031 171.769531 107.347656 171.507812 C 107.347656 171.507812 107.351562 171.507812 107.351562 171.507812 C 107.925781 171.269531 108.433594 170.933594 108.890625 170.535156 C 108.910156 170.515625 108.949219 170.507812 108.96875 170.484375 C 108.992188 170.460938 109.007812 170.441406 109.027344 170.425781 C 109.183594 170.277344 109.324219 170.117188 109.460938 169.957031 C 109.585938 169.816406 109.710938 169.675781 109.824219 169.523438 C 109.867188 169.464844 109.894531 169.398438 109.933594 169.332031 C 110.484375 168.46875 110.800781 167.464844 110.800781 166.40625 L 110.800781 104.578125 C 110.800781 102.996094 110.140625 101.511719 109.152344 100.671875 C 109.101562 100.621094 109.027344 100.609375 108.976562 100.554688 C 108.53125 100.144531 108.03125 99.804688 107.464844 99.554688 C 107.375 99.519531 107.289062 99.496094 107.199219 99.460938 C 106.648438 99.253906 106.050781 99.128906 105.433594 99.117188 C 105.375 99.117188 105.332031 99.085938 105.273438 99.085938 L 70.742188 99.085938 L 70.742188 69.566406 L 220.660156 69.566406 L 220.660156 78.078125 C 220.660156 81.21875 223.210938 83.769531 226.351562 83.769531 L 235.78125 83.769531 C 236.972656 88.0625 238.683594 92.183594 240.898438 96.085938 L 234.207031 102.753906 L 234.148438 102.8125 C 232.039062 105.039062 232.039062 108.515625 234.222656 110.808594 L 247.335938 123.886719 C 248.386719 125.003906 249.8125 125.628906 251.332031 125.648438 C 253.03125 125.789062 254.332031 125.070312 255.433594 123.964844 L 262.109375 117.292969 C 265.980469 119.488281 270.097656 121.203125 274.40625 122.402344 L 274.40625 131.832031 C 274.40625 134.96875 276.957031 137.519531 280.09375 137.519531 L 285.554688 137.519531 L 285.554688 295.398438 L 178.148438 295.398438 C 177.613281 295.398438 177.105469 295.507812 176.636719 295.707031 C 175.246094 296.296875 174.269531 297.671875 174.269531 299.273438 C 174.269531 312.78125 169 325.496094 159.421875 335.074219 C 155.847656 338.640625 151.828125 341.625 147.460938 343.960938 C 143.105469 346.289062 138.398438 347.972656 133.484375 348.945312 Z M 353.101562 335.074219 C 343.523438 344.652344 330.816406 349.921875 317.300781 349.921875 C 315.675781 349.921875 314.058594 349.921875 312.433594 349.921875 C 308.054688 349.921875 303.671875 349.921875 299.292969 349.921875 C 292.863281 349.921875 286.4375 349.921875 280.007812 349.921875 C 272.246094 349.921875 264.484375 349.921875 256.722656 349.921875 C 248.34375 349.921875 239.964844 349.921875 231.585938 349.921875 C 223.300781 349.921875 215.015625 349.921875 206.734375 349.921875 C 199.257812 349.921875 191.785156 349.921875 184.308594 349.921875 C 178.355469 349.921875 172.410156 349.921875 166.457031 349.921875 C 162.742188 349.921875 159.03125 349.921875 155.320312 349.921875 C 154.429688 349.921875 153.542969 349.921875 152.652344 349.929688 C 157.0625 347.378906 161.367188 344.246094 164.890625 340.542969 C 175.003906 330.429688 180.957031 317.265625 181.875 303.144531 L 367.789062 303.144531 C 366.898438 315.199219 361.761719 326.421875 353.101562 335.074219 Z M 127.382812 105.023438 C 127.382812 102.886719 129.109375 101.160156 131.25 101.160156 L 186.417969 101.160156 C 188.558594 101.160156 190.285156 102.894531 190.285156 105.023438 C 190.285156 107.164062 188.558594 108.890625 186.417969 108.890625 L 131.25 108.890625 C 129.109375 108.890625 127.382812 107.164062 127.382812 105.023438 Z M 127.382812 138.535156 C 127.382812 136.394531 129.109375 134.667969 131.25 134.667969 L 200.382812 134.667969 C 202.523438 134.667969 204.25 136.402344 204.25 138.535156 C 204.25 140.671875 202.523438 142.398438 200.382812 142.398438 L 131.25 142.398438 C 129.109375 142.398438 127.382812 140.664062 127.382812 138.535156 Z M 127.382812 172.042969 C 127.382812 169.902344 129.109375 168.175781 131.25 168.175781 L 240.257812 168.175781 C 242.394531 168.175781 244.125 169.910156 244.125 172.042969 C 244.125 174.175781 242.394531 175.910156 240.257812 175.910156 L 131.25 175.910156 C 129.109375 175.910156 127.382812 174.183594 127.382812 172.042969 Z M 100.128906 205.550781 C 100.128906 203.414062 101.855469 201.6875 103.996094 201.6875 L 258.074219 201.6875 C 260.210938 201.6875 261.941406 203.414062 261.941406 205.550781 C 261.941406 207.691406 260.210938 209.417969 258.074219 209.417969 L 103.996094 209.417969 C 101.855469 209.417969 100.128906 207.691406 100.128906 205.550781 Z M 100.128906 239.0625 C 100.128906 236.921875 101.855469 235.195312 103.996094 235.195312 L 258.074219 235.195312 C 260.210938 235.195312 261.941406 236.921875 261.941406 239.0625 C 261.941406 241.199219 260.210938 242.925781 258.074219 242.925781 L 103.996094 242.925781 C 101.855469 242.933594 100.128906 241.199219 100.128906 239.0625 Z M 258.074219 276.4375 L 103.996094 276.4375 C 101.855469 276.4375 100.128906 274.707031 100.128906 272.570312 C 100.128906 270.429688 101.855469 268.703125 103.996094 268.703125 L 258.074219 268.703125 C 260.210938 268.703125 261.941406 270.429688 261.941406 272.570312 C 261.941406 274.707031 260.210938 276.4375 258.074219 276.4375 Z M 258.074219 276.4375 " fill-opacity="1" fill-rule="nonzero"/></svg>