<svg xmlns="http://www.w3.org/2000/svg" xmlns:xlink="http://www.w3.org/1999/xlink" width="500" zoomAndPan="magnify" viewBox="0 0 375 374.999991" height="500" preserveAspectRatio="xMidYMid meet" version="1.0"><defs><clipPath id="0459d2910a"><path d="M 0.652344 0 L 374.152344 0 L 374.152344 375 L 0.652344 375 Z M 0.652344 0 " clip-rule="nonzero"/></clipPath></defs><g clip-path="url(#0459d2910a)"><path fill="#ffffff" d="M 372.773438 310.519531 L 317.589844 255.746094 C 316.070312 254.242188 313.796875 253.796875 311.824219 254.617188 C 309.851562 255.4375 308.5625 257.367188 308.5625 259.507812 L 308.5625 288.488281 L 260.617188 288.488281 C 291.867188 265.796875 312.226562 228.984375 312.226562 187.5 C 312.226562 118.722656 256.273438 62.769531 187.496094 62.769531 C 167.480469 62.769531 148.558594 67.511719 131.78125 75.925781 L 61.128906 75.925781 C 58.207031 75.925781 55.835938 78.296875 55.835938 81.21875 L 55.835938 102.78125 L 13.464844 60.726562 L 55.835938 18.667969 L 55.835938 40.230469 C 55.835938 43.15625 58.207031 45.523438 61.128906 45.523438 L 187.496094 45.523438 C 190.417969 45.523438 192.789062 43.15625 192.789062 40.230469 C 192.789062 37.304688 190.417969 34.933594 187.496094 34.933594 L 66.425781 34.933594 L 66.425781 5.953125 C 66.425781 3.816406 65.140625 1.886719 63.164062 1.066406 C 61.191406 0.242188 58.917969 0.6875 57.398438 2.195312 L 2.214844 56.96875 C 1.214844 57.960938 0.652344 59.3125 0.652344 60.726562 C 0.652344 62.136719 1.214844 63.488281 2.214844 64.484375 L 57.398438 119.253906 C 58.410156 120.261719 59.761719 120.792969 61.132812 120.792969 C 61.816406 120.792969 62.507812 120.660156 63.164062 120.386719 C 65.140625 119.5625 66.425781 117.636719 66.425781 115.496094 L 66.425781 86.515625 L 114.371094 86.515625 C 83.121094 109.203125 62.761719 146.015625 62.761719 187.5 C 62.761719 256.28125 118.714844 312.234375 187.496094 312.234375 C 207.507812 312.234375 226.429688 307.492188 243.207031 299.078125 L 313.859375 299.078125 C 316.785156 299.078125 319.15625 296.707031 319.15625 293.78125 L 319.15625 272.222656 L 361.527344 314.277344 L 319.15625 356.335938 L 319.15625 334.773438 C 319.15625 331.847656 316.785156 329.476562 313.859375 329.476562 L 187.496094 329.476562 C 184.570312 329.476562 182.199219 331.847656 182.199219 334.773438 C 182.199219 337.699219 184.570312 340.066406 187.496094 340.066406 L 308.5625 340.066406 L 308.5625 369.050781 C 308.5625 371.1875 309.851562 373.117188 311.824219 373.9375 C 312.480469 374.210938 313.171875 374.34375 313.859375 374.34375 C 315.226562 374.34375 316.578125 373.8125 317.589844 372.808594 L 372.773438 318.035156 C 373.773438 317.042969 374.339844 315.6875 374.339844 314.277344 C 374.339844 312.867188 373.773438 311.515625 372.773438 310.519531 Z M 73.351562 187.5 C 73.351562 124.5625 124.554688 73.359375 187.496094 73.359375 C 250.433594 73.359375 301.636719 124.5625 301.636719 187.5 C 301.636719 250.441406 250.433594 301.644531 187.496094 301.644531 C 124.554688 301.644531 73.351562 250.441406 73.351562 187.5 Z M 187.496094 92.175781 C 134.933594 92.175781 92.167969 134.9375 92.167969 187.5 C 92.167969 240.066406 134.933594 282.828125 187.496094 282.828125 C 240.058594 282.828125 282.820312 240.0625 282.820312 187.5 C 282.820312 134.941406 240.058594 92.175781 187.496094 92.175781 Z M 187.496094 272.238281 C 140.773438 272.238281 102.761719 234.226562 102.761719 187.5 C 102.761719 140.777344 140.773438 102.765625 187.496094 102.765625 C 234.21875 102.765625 272.230469 140.777344 272.230469 187.5 C 272.230469 234.226562 234.21875 272.238281 187.496094 272.238281 Z M 216.992188 209.511719 C 216.992188 222.667969 206.589844 233.652344 192.894531 235.972656 L 193.074219 243.53125 C 193.144531 246.453125 190.832031 248.882812 187.910156 248.953125 C 187.867188 248.953125 187.820312 248.953125 187.777344 248.953125 C 184.914062 248.953125 182.558594 246.664062 182.488281 243.785156 L 182.300781 236.058594 C 173.957031 234.828125 168.828125 230.617188 163.609375 225.691406 C 161.480469 223.683594 161.382812 220.332031 163.390625 218.203125 C 165.398438 216.078125 168.75 215.980469 170.875 217.988281 C 176.742188 223.519531 180.347656 225.832031 187.492188 225.832031 C 197.921875 225.832031 206.402344 218.511719 206.402344 209.511719 C 206.402344 200.515625 197.921875 193.195312 187.492188 193.195312 C 171.226562 193.195312 157.992188 181.125 157.992188 166.285156 C 157.992188 153.125 168.40625 142.140625 182.113281 139.824219 L 181.914062 131.472656 C 181.84375 128.550781 184.15625 126.125 187.082031 126.050781 C 190 125.964844 192.429688 128.296875 192.5 131.21875 L 192.710938 139.980469 C 200.050781 141.496094 209.460938 145.765625 213.390625 151.75 C 215 154.195312 214.320312 157.476562 211.875 159.082031 C 209.433594 160.691406 206.148438 160.011719 204.542969 157.566406 C 202.132812 153.898438 192.472656 149.964844 187.492188 149.964844 C 177.066406 149.964844 168.585938 157.285156 168.585938 166.285156 C 168.585938 175.285156 177.066406 182.605469 187.496094 182.605469 C 203.761719 182.605469 216.992188 194.675781 216.992188 209.511719 Z M 216.992188 209.511719 " fill-opacity="1" fill-rule="nonzero"/></g></svg>